<svg width="521" height="138" viewBox="0 0 521 138" fill="none" xmlns="http://www.w3.org/2000/svg">
<circle cx="68" cy="68.7598" r="38" fill="url(#paint0_radial)"/>
<path d="M142.928 104.979C145.155 104.979 146.763 104.03 147.98 102.525L146.99 101.907C146.124 103.103 144.619 103.907 142.928 103.907C139.732 103.907 137.237 101.412 137.237 97.8655C137.237 94.2778 139.732 91.8241 142.928 91.8241C144.619 91.8241 146.124 92.6283 146.99 93.8242L147.98 93.185C146.804 91.721 145.155 90.752 142.928 90.752C139.072 90.752 136 93.6386 136 97.8655C136 102.092 139.072 104.979 142.928 104.979Z" fill="white"/>
<path d="M168.37 104.732H169.69L164.061 90.9788H162.597L156.968 104.732H158.287L159.669 101.35H166.988L168.37 104.732ZM163.318 92.1334L166.617 100.278H160.04L163.318 92.1334Z" fill="white"/>
<path d="M179.761 104.732H180.936V99.0201H184.916C187.534 99.0201 189.06 97.1644 189.06 94.9994C189.06 92.8345 187.555 90.9788 184.916 90.9788H179.761V104.732ZM187.823 94.9994C187.823 96.7314 186.606 97.9479 184.792 97.9479H180.936V92.0509H184.792C186.606 92.0509 187.823 93.2675 187.823 94.9994Z" fill="white"/>
<path d="M199.582 104.732H200.757V90.9788H199.582V104.732Z" fill="white"/>
<path d="M215.719 104.732H216.915V92.0509H221.41V90.9788H211.224V92.0509H215.719V104.732Z" fill="white"/>
<path d="M240.464 104.732H241.784L236.155 90.9788H234.691L229.062 104.732H230.382L231.763 101.35H239.083L240.464 104.732ZM235.413 92.1334L238.712 100.278H232.134L235.413 92.1334Z" fill="white"/>
<path d="M251.855 104.732H259.69V103.659H253.031V90.9788H251.855V104.732Z" fill="white"/>
<path d="M295.334 104.732H296.53V90.9788H294.757L290.097 102.381L285.416 90.9788H283.664V104.732H284.839V92.5252L289.87 104.732H290.324L295.334 92.5252V104.732Z" fill="white"/>
<path d="M317.975 104.732H319.294L313.666 90.9788H312.202L306.573 104.732H307.892L309.274 101.35H316.593L317.975 104.732ZM312.923 92.1334L316.222 100.278H309.645L312.923 92.1334Z" fill="white"/>
<path d="M339.201 104.732H340.356V90.9788H339.181V102.69L330.562 90.9788H329.366V104.732H330.541V92.8551L339.201 104.732Z" fill="white"/>
<path d="M361.824 104.732H363.144L357.515 90.9788H356.051L350.422 104.732H351.742L353.123 101.35H360.443L361.824 104.732ZM356.773 92.1334L360.072 100.278H353.494L356.773 92.1334Z" fill="white"/>
<path d="M371.895 97.8655C371.895 102.113 374.988 105 378.864 105C381.029 105 382.843 104.072 384.08 102.711V97.9067H377.689V98.9789H382.905V102.257C382.142 103.02 380.699 103.927 378.864 103.927C375.627 103.927 373.132 101.412 373.132 97.8655C373.132 94.2778 375.627 91.8241 378.864 91.8241C380.616 91.8241 382.184 92.587 383.153 93.7417L384.039 93.1025C382.781 91.6592 381.132 90.752 378.864 90.752C374.988 90.752 371.895 93.618 371.895 97.8655Z" fill="white"/>
<path d="M395.11 104.732H403.832V103.659H396.285V98.216H403.688V97.1438H396.285V92.0509H403.832V90.9788H395.11V104.732Z" fill="white"/>
<path d="M426.46 104.732H427.656V90.9788H425.883L421.223 102.381L416.543 90.9788H414.79V104.732H415.965V92.5252L420.996 104.732H421.45L426.46 92.5252V104.732Z" fill="white"/>
<path d="M439.101 104.732H447.823V103.659H440.276V98.216H447.678V97.1438H440.276V92.0509H447.823V90.9788H439.101V104.732Z" fill="white"/>
<path d="M468.616 104.732H469.77V90.9788H468.595V102.69L459.976 90.9788H458.781V104.732H459.956V92.8551L468.616 104.732Z" fill="white"/>
<path d="M484.744 104.732H485.94V92.0509H490.435V90.9788H480.249V92.0509H484.744V104.732Z" fill="white"/>
<path d="M136 78.9086H144.094V59.6775H164.814V78.9086H172.843V33H164.814V52.1016H144.094V33H136V78.9086Z" fill="white"/>
<path d="M206.663 79.8799C217.153 79.8799 225.7 71.3327 225.7 61.0373C225.7 50.4828 217.153 42.1947 206.663 42.1947C196.174 42.1947 187.626 50.4828 187.626 61.0373C187.626 71.3327 196.174 79.8799 206.663 79.8799ZM206.663 72.2392C200.641 72.2392 195.785 67.7066 195.785 61.0373C195.785 54.1089 200.641 49.8353 206.663 49.8353C212.75 49.8353 217.671 54.1089 217.671 61.0373C217.671 67.7066 212.75 72.2392 206.663 72.2392Z" fill="white"/>
<path d="M239.409 78.9086H247.438V33H239.409V78.9086Z" fill="white"/>
<path d="M280.189 79.8799C290.678 79.8799 299.226 71.3327 299.226 61.0373C299.226 50.4828 290.678 42.1947 280.189 42.1947C269.699 42.1947 261.152 50.4828 261.152 61.0373C261.152 71.3327 269.699 79.8799 280.189 79.8799ZM280.189 72.2392C274.167 72.2392 269.311 67.7066 269.311 61.0373C269.311 54.1089 274.167 49.8353 280.189 49.8353C286.275 49.8353 291.196 54.1089 291.196 61.0373C291.196 67.7066 286.275 72.2392 280.189 72.2392Z" fill="white"/>
<path d="M330.074 79.8799C335.319 79.8799 340.046 77.8078 343.478 74.3113L338.233 69.0017C336.225 71.009 333.506 72.2392 330.074 72.2392C323.987 72.2392 319.131 67.3181 319.131 60.843C319.131 54.4326 323.987 49.5116 330.074 49.5116C333.7 49.5116 336.679 50.9361 338.686 53.2024L343.931 47.828C340.499 44.202 335.513 41.8709 330.074 41.8709C319.52 41.8709 310.972 50.3533 310.972 60.843C310.972 71.3975 319.52 79.8799 330.074 79.8799Z" fill="white"/>
<path d="M372.252 79.8799C381.188 79.8799 388.311 74.376 390.836 66.6706H381.9C380.217 70.2967 376.655 72.304 372.382 72.304C366.943 72.304 362.345 68.6132 361.439 63.6921H391.483C391.678 62.7208 391.742 61.6848 391.742 61.102C391.742 50.3533 383.195 42.1299 372.252 42.1299C361.309 42.1299 352.762 50.3533 352.762 60.843C352.762 71.3327 361.309 79.8799 372.252 79.8799ZM361.568 57.5407C362.151 53.0081 366.425 49.7058 372.123 49.7058C377.821 49.7058 382.03 53.2671 382.742 57.5407H361.568Z" fill="white"/>
<path d="M405.43 78.9086H413.459V50.6771H429.712V78.9086H437.741V43.1012H405.43V78.9086Z" fill="white"/>
<path d="M470.945 79.8799C479.88 79.8799 487.003 74.376 489.528 66.6706H480.593C478.909 70.2967 475.348 72.304 471.074 72.304C465.635 72.304 461.038 68.6132 460.131 63.6921H490.176C490.37 62.7208 490.435 61.6848 490.435 61.102C490.435 50.3533 481.888 42.1299 470.945 42.1299C460.002 42.1299 451.455 50.3533 451.455 60.843C451.455 71.3327 460.002 79.8799 470.945 79.8799ZM460.261 57.5407C460.844 53.0081 465.117 49.7058 470.815 49.7058C476.513 49.7058 480.722 53.2671 481.434 57.5407H460.261Z" fill="white"/>
<defs>
<radialGradient id="paint0_radial" cx="0" cy="0" r="1" gradientUnits="userSpaceOnUse" gradientTransform="translate(68 68.7598) rotate(90) scale(38)">
<stop stop-color="#E58AE7" stop-opacity="0.7"/>
<stop offset="1" stop-color="#406A92"/>
</radialGradient>
</defs>
</svg>
