<svg width="501" height="89" viewBox="0 0 501 89" fill="none" xmlns="http://www.w3.org/2000/svg">
<circle cx="38" cy="38.2593" r="38" fill="url(#paint0_radial)"/>
<path d="M112.928 74.4804C115.155 74.4804 116.763 73.5319 117.98 72.0268L116.99 71.4082C116.124 72.6041 114.619 73.4082 112.928 73.4082C109.732 73.4082 107.237 70.9134 107.237 67.3669C107.237 63.7792 109.732 61.3256 112.928 61.3256C114.619 61.3256 116.124 62.1297 116.99 63.3256L117.98 62.6864C116.804 61.2225 115.155 60.2534 112.928 60.2534C109.072 60.2534 106 63.1401 106 67.3669C106 71.5938 109.072 74.4804 112.928 74.4804Z" fill="#434343"/>
<path d="M138.37 74.233H139.69L134.061 60.4802H132.597L126.968 74.233H128.287L129.669 70.8515H136.988L138.37 74.233ZM133.318 61.6349L136.617 69.7793H130.04L133.318 61.6349Z" fill="#434343"/>
<path d="M149.761 74.233H150.936V68.5216H154.916C157.534 68.5216 159.06 66.6659 159.06 64.5009C159.06 62.3359 157.555 60.4802 154.916 60.4802H149.761V74.233ZM157.823 64.5009C157.823 66.2329 156.607 67.4494 154.792 67.4494H150.936V61.5524H154.792C156.607 61.5524 157.823 62.7689 157.823 64.5009Z" fill="#434343"/>
<path d="M169.582 74.233H170.757V60.4802H169.582V74.233Z" fill="#434343"/>
<path d="M185.719 74.233H186.915V61.5524H191.41V60.4802H181.224V61.5524H185.719V74.233Z" fill="#434343"/>
<path d="M210.464 74.233H211.784L206.155 60.4802H204.691L199.062 74.233H200.382L201.763 70.8515H209.083L210.464 74.233ZM205.413 61.6349L208.712 69.7793H202.134L205.413 61.6349Z" fill="#434343"/>
<path d="M221.855 74.233H229.69V73.1608H223.031V60.4802H221.855V74.233Z" fill="#434343"/>
<path d="M265.334 74.233H266.53V60.4802H264.757L260.097 71.8824L255.416 60.4802H253.664V74.233H254.839V62.0266L259.87 74.233H260.324L265.334 62.0266V74.233Z" fill="#434343"/>
<path d="M287.975 74.233H289.294L283.666 60.4802H282.202L276.573 74.233H277.892L279.274 70.8515H286.593L287.975 74.233ZM282.923 61.6349L286.222 69.7793H279.645L282.923 61.6349Z" fill="#434343"/>
<path d="M309.201 74.233H310.356V60.4802H309.181V72.1917L300.562 60.4802H299.366V74.233H300.541V62.3565L309.201 74.233Z" fill="#434343"/>
<path d="M331.824 74.233H333.144L327.515 60.4802H326.051L320.422 74.233H321.742L323.123 70.8515H330.443L331.824 74.233ZM326.773 61.6349L330.072 69.7793H323.494L326.773 61.6349Z" fill="#434343"/>
<path d="M341.895 67.3669C341.895 71.6144 344.988 74.501 348.864 74.501C351.029 74.501 352.843 73.5732 354.08 72.2123V67.4082H347.689V68.4803H352.905V71.7587C352.142 72.5216 350.699 73.4289 348.864 73.4289C345.627 73.4289 343.132 70.9134 343.132 67.3669C343.132 63.7792 345.627 61.3256 348.864 61.3256C350.616 61.3256 352.183 62.0885 353.153 63.2431L354.039 62.604C352.781 61.1606 351.132 60.2534 348.864 60.2534C344.988 60.2534 341.895 63.1194 341.895 67.3669Z" fill="#434343"/>
<path d="M365.11 74.233H373.832V73.1608H366.285V67.7174H373.688V66.6453H366.285V61.5524H373.832V60.4802H365.11V74.233Z" fill="#434343"/>
<path d="M396.46 74.233H397.656V60.4802H395.883L391.223 71.8824L386.543 60.4802H384.79V74.233H385.965V62.0266L390.996 74.233H391.45L396.46 62.0266V74.233Z" fill="#434343"/>
<path d="M409.101 74.233H417.823V73.1608H410.276V67.7174H417.678V66.6453H410.276V61.5524H417.823V60.4802H409.101V74.233Z" fill="#434343"/>
<path d="M438.616 74.233H439.77V60.4802H438.595V72.1917L429.976 60.4802H428.781V74.233H429.956V62.3565L438.616 74.233Z" fill="#434343"/>
<path d="M454.744 74.233H455.94V61.5524H460.435V60.4802H450.249V61.5524H454.744V74.233Z" fill="#434343"/>
<path d="M106 48.4096H114.094V29.1785H134.814V48.4096H142.843V2.50098H134.814V21.6026H114.094V2.50098H106V48.4096Z" fill="#434343"/>
<path d="M176.663 49.3808C187.153 49.3808 195.7 40.8337 195.7 30.5382C195.7 19.9838 187.153 11.6956 176.663 11.6956C166.174 11.6956 157.626 19.9838 157.626 30.5382C157.626 40.8337 166.174 49.3808 176.663 49.3808ZM176.663 41.7402C170.641 41.7402 165.785 37.2076 165.785 30.5382C165.785 23.6099 170.641 19.3363 176.663 19.3363C182.75 19.3363 187.671 23.6099 187.671 30.5382C187.671 37.2076 182.75 41.7402 176.663 41.7402Z" fill="#434343"/>
<path d="M209.409 48.4096H217.438V2.50098H209.409V48.4096Z" fill="#434343"/>
<path d="M250.189 49.3808C260.678 49.3808 269.226 40.8337 269.226 30.5382C269.226 19.9838 260.678 11.6956 250.189 11.6956C239.699 11.6956 231.152 19.9838 231.152 30.5382C231.152 40.8337 239.699 49.3808 250.189 49.3808ZM250.189 41.7402C244.167 41.7402 239.311 37.2076 239.311 30.5382C239.311 23.6099 244.167 19.3363 250.189 19.3363C256.275 19.3363 261.196 23.6099 261.196 30.5382C261.196 37.2076 256.275 41.7402 250.189 41.7402Z" fill="#434343"/>
<path d="M300.074 49.3808C305.319 49.3808 310.046 47.3088 313.478 43.8122L308.233 38.5026C306.225 40.5099 303.506 41.7402 300.074 41.7402C293.987 41.7402 289.131 36.8191 289.131 30.344C289.131 23.9336 293.987 19.0125 300.074 19.0125C303.7 19.0125 306.679 20.4371 308.686 22.7034L313.931 17.329C310.499 13.7029 305.513 11.3719 300.074 11.3719C289.52 11.3719 280.972 19.8543 280.972 30.344C280.972 40.8984 289.52 49.3808 300.074 49.3808Z" fill="#434343"/>
<path d="M342.252 49.3808C351.188 49.3808 358.311 43.877 360.836 36.1716H351.9C350.217 39.7977 346.655 41.805 342.382 41.805C336.943 41.805 332.345 38.1141 331.439 33.193H361.483C361.678 32.2218 361.742 31.1858 361.742 30.603C361.742 19.8543 353.195 11.6309 342.252 11.6309C331.309 11.6309 322.762 19.8543 322.762 30.344C322.762 40.8337 331.309 49.3808 342.252 49.3808ZM331.568 27.0417C332.151 22.5091 336.425 19.2068 342.123 19.2068C347.821 19.2068 352.03 22.7681 352.742 27.0417H331.568Z" fill="#434343"/>
<path d="M375.43 48.4096H383.459V20.1781H399.712V48.4096H407.741V12.6022H375.43V48.4096Z" fill="#434343"/>
<path d="M440.945 49.3808C449.88 49.3808 457.003 43.877 459.528 36.1716H450.593C448.909 39.7977 445.348 41.805 441.074 41.805C435.635 41.805 431.038 38.1141 430.131 33.193H460.176C460.37 32.2218 460.435 31.1858 460.435 30.603C460.435 19.8543 451.888 11.6309 440.945 11.6309C430.002 11.6309 421.455 19.8543 421.455 30.344C421.455 40.8337 430.002 49.3808 440.945 49.3808ZM430.261 27.0417C430.844 22.5091 435.117 19.2068 440.815 19.2068C446.513 19.2068 450.722 22.7681 451.434 27.0417H430.261Z" fill="#434343"/>
<defs>
<radialGradient id="paint0_radial" cx="0" cy="0" r="1" gradientUnits="userSpaceOnUse" gradientTransform="translate(38 38.2593) rotate(90) scale(38)">
<stop stop-color="#E58AE7" stop-opacity="0.7"/>
<stop offset="1" stop-color="#406A92"/>
</radialGradient>
</defs>
</svg>
